<?xml version="1.0" encoding="UTF-8" standalone="no"?>
<svg
   xmlns:dc="http://purl.org/dc/elements/1.1/"
   xmlns:cc="http://creativecommons.org/ns#"
   xmlns:rdf="http://www.w3.org/1999/02/22-rdf-syntax-ns#"
   xmlns:svg="http://www.w3.org/2000/svg"
   xmlns="http://www.w3.org/2000/svg"
   xmlns:sodipodi="http://sodipodi.sourceforge.net/DTD/sodipodi-0.dtd"
   xmlns:inkscape="http://www.inkscape.org/namespaces/inkscape"
   version="1.1"
   id="Layer_1"
   x="0px"
   y="0px"
   width="431"
   height="239"
   viewBox="0 0 431.0000000000002 238.9999999999998"
   enable-background="new 0 0 578 462"
   xml:space="preserve"
   inkscape:version="0.91 r13725"
   sodipodi:docname="Bug-3.svg"><metadata
     id="metadata8"><rdf:RDF><cc:Work
         rdf:about=""><dc:format>image/svg+xml</dc:format><dc:type
           rdf:resource="http://purl.org/dc/dcmitype/StillImage" /><dc:date>2016</dc:date><dc:creator><cc:Agent><dc:title>Lazur</dc:title></cc:Agent></dc:creator><dc:description>Original raster images of this series were uploaded by NicholasJudy456 to openclipart embedded in svg-s (416 in total).  This is one of the refixes upon request by the original author.</dc:description><dc:contributor><cc:Agent><dc:title /></cc:Agent></dc:contributor><dc:title></dc:title></cc:Work></rdf:RDF></metadata><defs
     id="defs6" /><sodipodi:namedview
     pagecolor="#ffffff"
     bordercolor="#666666"
     borderopacity="1"
     objecttolerance="10"
     gridtolerance="10"
     guidetolerance="10"
     inkscape:pageopacity="0"
     inkscape:pageshadow="2"
     inkscape:window-width="1366"
     inkscape:window-height="705"
     id="namedview4"
     showgrid="false"
     borderlayer="true"
     inkscape:showpageshadow="false"
     inkscape:zoom="2.322175732217573"
     inkscape:cx="215.5"
     inkscape:cy="119.5"
     inkscape:window-x="-8"
     inkscape:window-y="-8"
     inkscape:window-maximized="1"
     inkscape:current-layer="Layer_1"
     fit-margin-top="0"
     fit-margin-left="0"
     fit-margin-right="0"
     fit-margin-bottom="0"
     showguides="true"
     inkscape:guide-bbox="true"
     showborder="true" /><path
     inkscape:connector-curvature="0"
     id="path5498"
     d="m 66.5,155 -0.5,-0.5 0.5,-0.5 0.5,0.5 z m -16.84108946836181,-11 -3.5,0 -0.5794552658191,-3 -1.15891053163817,-6 -0.5794552658191,-3 1.3294552658191,-0.013654683292 3.45251188065167,-0.5834349230203 2.12305661483257,-0.5697802397278 0.66114259346089,3.8334349230202 1.2063986509865,6.5834349230203 0.54525605752562,2.75 z m 16.09108946836181,-2.4778937948067 -3.75,0.7004755933225 0,-6.6112908992579 0,-6.6112908992579 1.375,0 4.64662618884336,-0.6543252377687 3.27162618884336,-0.6543252377686 -0.72387902006645,6.3982447356584 -0.89662618884334,6.565140543704 z m 314.34501243788787,-84.58549250561236 -2.8150949600813,-0.95670860060485 -2.2200825221934,-0.89332230018577 -0.6071052486205,-2.41889997934216 -0.6071052486203,-2.41889997934215 3.1104635639844,-6.16179370113081 3.1104635639846,-6.16179370113088 2.5136234663322,-0.95567793854013 2.5136234663321,-0.95567793854014 4.8283103437095,2.44669001291254 4.8283103437098,2.44669001291252 0.5947586439425,1.54991618153059 0.5947586439428,1.54991618153059 -8.2234414906313,-0.6321037324249 -8.223441490631,-0.63210373242492 -1.6736051465492,3.509586480797 -1.6736051465494,3.50958648079699 3.9395372106382,1.77648376340284 3.9395372106382,1.77648376340289 -1.667446382725,1.84250751339991 z"
     style="fill:#fefefe"
     sodipodi:nodetypes="cccccccccccccccccccccccccccccccccccccccccccccccc" /><path
     inkscape:connector-curvature="0"
     id="path5496"
     d="m 163.4515637527089,217.2023592216806 -2.1458914673516,1.7023592216807 -2.1282569095293,-2.8786215222326 -2.4028361426787,-3.8278285495018 -0.2745792331493,-0.9492070272691 5.2191719278088,-6.4643493112852 5.2191719278088,-6.4643493112852 -1.981350349636,-11.9101813608936 -2.4882239560237,-14.1601813608937 -0.5068736063877,-2.25 -5.2945280869729,0 -16.6934995984059,-1.5034465985195 -11.398971511433,-1.5034465985195 -3.5374483733792,-2.8182379683526 -16.1970707749772,-12.4965534014805 -13.25,-9.6783154331279 -0.590377598402,0 -0.007953306424,3.75 -0.007953306424,3.75 -15.42315492256095,20 -15.42315492256095,20 -7.77148136164765,4.7140770760349 -8.04207334203098,4.4434850956504 6.29131619333779,-15.7140770760348 9.42862379854446,-22.1934850956505 2.56346953848349,-6.75 -19.70544222752879,16.9674989463137 -19.40219614118894,16.9674989463136 -0.88241772882104,-10.5930243561414 -0.88241772882104,-10.5930243561415 1.64814498359829,-9.923983369215 1.64814498359828,-9.923983369215 4.90540493540252,-9.7004912209572 4.90540493540251,-9.7004912209572 6.59475943261338,-7.8712046886287 7.10450096320101,-8.6959838105963 0.50974153058764,-0.8247791219678 -2.44038286629442,-10.80401618940344 -5.54757718043475,-21.25792739637649 -3.10719431414033,-10.45391120697286 -3.72805597294601,-5.78734244542007 -3.72805597294601,-5.78734244542014 -2.12500000000009,-0.008746347607 -5.22040731776665,-0.62782781116036 -3.09540731776652,-0.6190814635533 -0.6017413428634,-1.89591908786893 -0.6017413428634,-1.89591908786895 3.15617797787391,-3.98499944857778 3.1561779778739,-3.98499944857775 5.24165665604666,3e-14 5.24165665604663,2e-14 2.25722744870854,2.40270851468219 2.25722744870853,2.40270851468222 -1.50326618347934,2.84729148531778 -1.50326618347934,2.84729148531781 3.92038370838152,7.12316442220214 3.92038370838153,7.12316442220209 4.52659179716364,19.87683557779788 5.06735672365584,21.62683557779778 0.54076492649221,1.75 6.41356030122834,0 6.41356030122839,0 0.5827847921889,-2.3219995626655 0.58278479218896,-2.3219995626658 -2.59059358571275,-24.01420645422843 -2.5905935857128,-24.01420645422826 -2.86871623564841,-7.41379398310593 -2.86871623564832,-7.41379398310594 -2.6392341653771,0.29330643363864 -2.63923416537709,0.29330643363863 -2.96518877723611,-2.11140064427684 -2.96518877723612,-2.11140064427678 0,-2.31321692559356 0,-2.31321692559356 3.73919386312677,-2.85202219710158 3.73919386312678,-2.85202219710164 5.85360445733146,0 5.85360445733157,-3e-14 1.41189597766916,1.93088280366263 1.41189597766912,1.93088280366263 -3.07904617291321,3.17676943945907 -3.07904617291321,3.17676943945906 4.00821993731833,7.97195374700422 4.00821993731826,7.97195374700425 1.02142795316763,11.90372734320737 1.67982377198105,29.46468501177445 0.65839581881339,17.56095766856701 4.69626790654216,2.63990118304 4.69626790654209,2.63990118304 3.44004025894428,5.0470493348613 3.95086246706933,4.7991411483928 29.24459329027337,-15.0547993078559 28.7337710821482,-14.80689112138745 16.2554067097267,-5.83310331089224 16.2554067097266,-5.83310331089223 -0.1314770843816,-0.86000556772018 -5.25,-17.46224365595825 -5.1185229156184,-16.60223808823801 0,-7.8998694351994 0,-7.89986943519941 2.967491406008,-10.38205054923586 3.310882293482,-10.72544143671212 6.3952228246203,7.88415807267328 9.6780869615321,13.74770056535925 3.6262550243857,5.52015160520972 2.011030744986,18.35899549596746 2.0110307449859,21.83683719897429 0,3.47784170300689 1.25,-0.47948988319385 7.1046097958772,-1.7895292755729 5.8546097958771,-1.310039392379 0.8400073710022,-2.06745952861115 3.9066792303074,-18.99846514047703 3.0666718593052,-16.93100561186589 6.7387109738155,-8.87404610613572 6.7387109738154,-8.87404610613576 10.4928433119262,-7.86877163673935 10.7374346238533,-7.62418032481076 2.8138140405788,17.67382335474096 2.5692227286515,17.42923204281242 -17.8066573525049,17.28891544102259 -17.8066573525049,17.28891544102258 6.5,-0.55809593340618 35,-2.51752231391545 76.4517928028948,-3.9983101270101 47.9517928028946,-2.0388837465008 0.8486538011757,-1.23250938060629 0.8486538011756,-1.23250938060637 -0.6481891938567,-11.99999999999999 -0.6481891938568,-12 -1.6522574102135,-2.8471749141442 -1.6522574102137,-2.84717491414423 -4.7031007404971,-2.39590530547377 -4.703100740497,-2.39590530547381 -2.5136234663321,0.95567793854014 -2.5136234663322,0.9556779385401 -3.1104635639839,6.16179370112997 -3.110463563984,6.16179370112994 0.6051169820098,2.41097809418232 0.6051169820098,2.41097809418233 2.6510109355538,1.00791256123745 2.6510109355538,1.00791256123744 1.8695442965201,-1.86954429651996 1.8695442965199,-1.86954429651996 -3.9755628332954,-1.79272905575451 -3.9755628332954,-1.79272905575453 1.6122906874157,-3.38100872319734 1.6122906874156,-3.38100872319738 3.6752164371202,0 8.4152537865997,0.64969439051109 4.7400373494795,0.64969439051105 -0.6403822480917,6.60030560948897 -0.6403822480918,6.60030560948895 -1.6134609374997,3.75333252704706 -1.6134609374998,3.75333252704701 -6.7760021516152,2.01798085598628 -6.7760021516155,2.01798085598628 -4.6794119407273,-2.27131338303332 -4.6794119407272,-2.27131338303334 -2.3659408044133,-4.66689226862862 -2.3659408044132,-4.66689226862867 2.001369471785,-5.81708134482346 2.0013694717849,-5.81708134482347 4.0880940154079,-6.76602638654785 4.088094015408,-6.76602638654788 7.662088039323,-3e-14 7.662088039323,-3e-14 6.6545380985754,6.75000000000004 6.6545380985755,6.75 1.6011099651353,6.26964105000544 1.6011099651354,6.26964105000545 -1.5859618022649,15.23035894999455 -1.5859618022648,15.23035894999455 -2.509089770225,10 -2.5090897702251,10.00000000000001 -5.6874160193799,5.8605711703718 -5.6874160193797,5.8605711703718 -14.2141206233405,10.7439324337125 -14.2141206233406,10.7439324337125 6.2141206233406,5.0236242551844 6.2141206233405,5.0236242551844 9.3364724630018,4.6753368688355 9.3364724630017,4.6753368688355 -0.4457053315085,1.1965352718957 -4.1853305058902,11.4132859833954 -3.7396251743816,10.2167507114997 -4.9667946474203,-2.5168653203625 -4.9667946474201,-2.5168653203624 2.7210100460945,-4.6998853911372 4.0656526903085,-6.6723916345427 1.3446426442143,-3.1160094048308 0,-1.1435031614256 -6.25,-2.2230855206108 -6.25,-2.2230855206108 -11.6191281105007,-6.4117548569616 -11.619128110501,-6.4117548569617 -10.380871889499,4.5957251584834 -10.8307295703926,5.034040796627 10.3352386461515,11.2569580624883 10.7850963270444,10.8186424243446 -4.3352386461513,8.612940158524 -4.3352386461513,8.6129401585239 -3.7724558173127,-3.214773597092 -3.7724558173128,-3.2147735970923 3.9978340249631,-5.9746217923488 3.9978340249628,-5.9746217923489 -0.7253782076502,-0.6850121776551 -11.707406887744,-9.7933292530378 -10.9820286800939,-9.1083170753825 -1.0179713199061,0.3615599491392 -9.7679713199061,2.7486243222133 -8.75,2.3870643730741 0,0.8026619890984 6.9779167088861,11.2030768498293 7.25,11.467587912798 0.2720832911139,1.067173052067 -9.5,7.4708893932199 -9.5,7.4708893932196 -1.7784496986457,-2.2218125719427 -2.7100966921616,-3.831511105137 -0.9316469935158,-1.6096985331942 6.9371854616864,-4.9500179145772 6.9371854616865,-4.9500179145773 -7.227088769525,-10.650781192277 -7.2270887695249,-10.6507811922771 -7,0.072427239799 -16.1252442371233,0.7104976400484 -9.1252442371232,0.6380704002493 4.3430167896985,14.4822274474249 4.3430167896986,14.482227447425 -0.7177725525753,0.6395676110513 -9.2177725525753,6.2778860368422 -8.5,5.6383184257907 -1.326211263469,-1.7601134842671 -2.7644611497423,-4.4884183373492 -1.4382498862734,-2.728304853082 6.2644611497423,-3.1402140953971 6.4970366004665,-3.3376039309751 -4.3471916651121,-11.1314810515208 -5.2325754507242,-11.6204745891735 -0.6528083348879,-0.6863833732306 -14,1.9227448020554 -17.179206342938,2.4684154617661 -3.1792063429379,0.5456706597106 6.4532908763031,14.1438833780993 6.4532908763033,14.1438833780992 -0.7740845333654,0.6721114505757 -7.2740845333651,5.169307991848 -7.7116572732706,5.1872929688244 -1.2116572732705,0.690096427552 -2.0135883170742,-3.9469591672656 -2.0135883170743,-3.9469591672657 5.1383311039128,-3.3383607187691 6.0059748887367,-3.9163694640007 0.8676437848237,-0.5780087452315 -6.0106297512218,-12.7362782675706 -6.0106297512219,-12.7362782675707 -4.27009954717,0.5824600447303 -13.1574505569035,1.534971355869 -9.1046555358162,1.231826968072 5.6373510097336,15.234602475869 5.8546555358162,15.1154789641132 -7.7012723899697,6.5447131810644 z m -113.79265322107069,-73.2023592216806 3.5,0 -0.54525605752561,-2.75 -1.20639865098651,-6.5834349230203 -0.66114259346089,-3.8334349230202 -2.12305661483257,0.5697802397278 -3.45251188065167,0.5834349230203 -1.3294552658191,0.013654683292 0.5794552658191,3 1.15891053163817,6 0.5794552658191,3 z m 16.09108946836181,-2.4778937948067 3.92274716877692,-0.8673714013682 0.89662618884333,-6.565140543704 0.72387902006646,-6.3982447356584 -3.27162618884336,0.6543252377686 -4.64662618884335,0.6543252377687 -1.375,0 0,6.6112908992579 0,6.6112908992579 z"
     style="fill:#000000"
     sodipodi:nodetypes="cccccccccccccccccccccccccccccccccccccccccccccccccccccccccccccccccccccccccccccccccccccccccccccccccccccccccccccccccccccccccccccccccccccccccccccccccccccccccccccccccccccccccccccccccccccccccccccccccccccccccccccccccccccccccccccccccccccccccccccccccccccccccccccccccccccccccccccccccccccccccccccc" /></svg>